<svg xmlns="http://www.w3.org/2000/svg" width="430" height="430" style="width:100%;height:100%;transform:translate3d(0,0,0);content-visibility:visible" viewBox="0 0 430 430"><defs><clipPath id="a"><path d="M0 0h430v430H0z"/></clipPath><clipPath id="d"><path d="M0 0h430v430H0z"/></clipPath><clipPath id="c"><path d="M0 0h430v430H0z"/></clipPath><clipPath id="b"><path d="M0 0h430v430H0z"/></clipPath></defs><g fill="none" clip-path="url(#a)"><g clip-path="url(#b)" style="display:none"><path class="secondary" style="display:none"/><path class="primary" style="display:none"/></g><g stroke-linejoin="round" stroke-width="12" clip-path="url(#c)" style="display:block"><path stroke="#07A889" stroke-linecap="round" d="M125.555 250v-35m0-35v35M75 250v-35m0-35v35m0 0h50.555m53.195 35v-70m-28.194 0h56.388m20 70v-70l29.5 34.028 29.5-34.028v70m81 0h-48.611v-70" class="secondary" style="display:block"/><path stroke="#121330" d="M-155-135c-16.569 0-30 13.431-30 30v210c0 16.569 13.431 30 30 30h310c16.569 0 30-13.431 30-30v-210c0-16.569-13.431-30-30-30z" class="primary" style="display:block" transform="translate(215 215)"/></g><g clip-path="url(#d)" style="display:none"><g style="display:none"><path class="secondary"/><path class="secondary"/><path class="secondary"/><path class="secondary"/><path class="secondary"/></g><path class="primary" style="display:none"/></g></g></svg>